<mxfile host="app.diagrams.net" agent="Mozilla/5.0 (Windows NT 10.0; Win64; x64) AppleWebKit/537.36 (KHTML, like Gecko) Chrome/128.0.0.0 Safari/537.36" version="24.7.7">
  <diagram name="Страница — 1" id="vDf7oDoRScbL9Xq5HohB">
    <mxGraphModel dx="1366" dy="1904" grid="1" gridSize="10" guides="1" tooltips="1" connect="1" arrows="1" fold="1" page="1" pageScale="1" pageWidth="827" pageHeight="1169" math="0" shadow="0">
      <root>
        <mxCell id="0" />
        <mxCell id="1" parent="0" />
        <mxCell id="HsyvcOr-vs-WV3GmDiYx-26" value="" style="ellipse;whiteSpace=wrap;html=1;" vertex="1" parent="1">
          <mxGeometry x="540" y="-60" width="240" height="350" as="geometry" />
        </mxCell>
        <mxCell id="HsyvcOr-vs-WV3GmDiYx-24" value="" style="ellipse;whiteSpace=wrap;html=1;" vertex="1" parent="1">
          <mxGeometry x="30" y="140" width="440" height="220" as="geometry" />
        </mxCell>
        <mxCell id="HsyvcOr-vs-WV3GmDiYx-2" value="main.py" style="swimlane;fontStyle=0;childLayout=stackLayout;horizontal=1;startSize=30;horizontalStack=0;resizeParent=1;resizeParentMax=0;resizeLast=0;collapsible=1;marginBottom=0;whiteSpace=wrap;html=1;" vertex="1" parent="1">
          <mxGeometry x="180" y="10" width="140" height="90" as="geometry" />
        </mxCell>
        <mxCell id="HsyvcOr-vs-WV3GmDiYx-3" value="main()" style="text;strokeColor=none;fillColor=none;align=left;verticalAlign=middle;spacingLeft=4;spacingRight=4;overflow=hidden;points=[[0,0.5],[1,0.5]];portConstraint=eastwest;rotatable=0;whiteSpace=wrap;html=1;" vertex="1" parent="HsyvcOr-vs-WV3GmDiYx-2">
          <mxGeometry y="30" width="140" height="30" as="geometry" />
        </mxCell>
        <mxCell id="HsyvcOr-vs-WV3GmDiYx-10" value="..." style="text;strokeColor=none;fillColor=none;align=left;verticalAlign=middle;spacingLeft=4;spacingRight=4;overflow=hidden;points=[[0,0.5],[1,0.5]];portConstraint=eastwest;rotatable=0;whiteSpace=wrap;html=1;" vertex="1" parent="HsyvcOr-vs-WV3GmDiYx-2">
          <mxGeometry y="60" width="140" height="30" as="geometry" />
        </mxCell>
        <mxCell id="HsyvcOr-vs-WV3GmDiYx-6" value="queries.py" style="swimlane;fontStyle=0;childLayout=stackLayout;horizontal=1;startSize=30;horizontalStack=0;resizeParent=1;resizeParentMax=0;resizeLast=0;collapsible=1;marginBottom=0;whiteSpace=wrap;html=1;" vertex="1" parent="1">
          <mxGeometry x="590" y="130" width="140" height="120" as="geometry" />
        </mxCell>
        <mxCell id="HsyvcOr-vs-WV3GmDiYx-7" value="get_user()" style="text;strokeColor=none;fillColor=none;align=left;verticalAlign=middle;spacingLeft=4;spacingRight=4;overflow=hidden;points=[[0,0.5],[1,0.5]];portConstraint=eastwest;rotatable=0;whiteSpace=wrap;html=1;" vertex="1" parent="HsyvcOr-vs-WV3GmDiYx-6">
          <mxGeometry y="30" width="140" height="30" as="geometry" />
        </mxCell>
        <mxCell id="HsyvcOr-vs-WV3GmDiYx-8" value="create_user()" style="text;strokeColor=none;fillColor=none;align=left;verticalAlign=middle;spacingLeft=4;spacingRight=4;overflow=hidden;points=[[0,0.5],[1,0.5]];portConstraint=eastwest;rotatable=0;whiteSpace=wrap;html=1;" vertex="1" parent="HsyvcOr-vs-WV3GmDiYx-6">
          <mxGeometry y="60" width="140" height="30" as="geometry" />
        </mxCell>
        <mxCell id="HsyvcOr-vs-WV3GmDiYx-9" value="..." style="text;strokeColor=none;fillColor=none;align=left;verticalAlign=middle;spacingLeft=4;spacingRight=4;overflow=hidden;points=[[0,0.5],[1,0.5]];portConstraint=eastwest;rotatable=0;whiteSpace=wrap;html=1;" vertex="1" parent="HsyvcOr-vs-WV3GmDiYx-6">
          <mxGeometry y="90" width="140" height="30" as="geometry" />
        </mxCell>
        <mxCell id="HsyvcOr-vs-WV3GmDiYx-11" value="models.py" style="swimlane;fontStyle=0;childLayout=stackLayout;horizontal=1;startSize=30;horizontalStack=0;resizeParent=1;resizeParentMax=0;resizeLast=0;collapsible=1;marginBottom=0;whiteSpace=wrap;html=1;" vertex="1" parent="1">
          <mxGeometry x="590" y="-20" width="140" height="90" as="geometry" />
        </mxCell>
        <mxCell id="HsyvcOr-vs-WV3GmDiYx-12" value="User" style="text;strokeColor=none;fillColor=none;align=left;verticalAlign=middle;spacingLeft=4;spacingRight=4;overflow=hidden;points=[[0,0.5],[1,0.5]];portConstraint=eastwest;rotatable=0;whiteSpace=wrap;html=1;" vertex="1" parent="HsyvcOr-vs-WV3GmDiYx-11">
          <mxGeometry y="30" width="140" height="30" as="geometry" />
        </mxCell>
        <mxCell id="HsyvcOr-vs-WV3GmDiYx-13" value="create_tables()" style="text;strokeColor=none;fillColor=none;align=left;verticalAlign=middle;spacingLeft=4;spacingRight=4;overflow=hidden;points=[[0,0.5],[1,0.5]];portConstraint=eastwest;rotatable=0;whiteSpace=wrap;html=1;" vertex="1" parent="HsyvcOr-vs-WV3GmDiYx-11">
          <mxGeometry y="60" width="140" height="30" as="geometry" />
        </mxCell>
        <mxCell id="HsyvcOr-vs-WV3GmDiYx-15" value="bot.py" style="swimlane;fontStyle=0;childLayout=stackLayout;horizontal=1;startSize=30;horizontalStack=0;resizeParent=1;resizeParentMax=0;resizeLast=0;collapsible=1;marginBottom=0;whiteSpace=wrap;html=1;" vertex="1" parent="1">
          <mxGeometry x="80" y="190" width="140" height="120" as="geometry" />
        </mxCell>
        <mxCell id="HsyvcOr-vs-WV3GmDiYx-16" value="get_message()" style="text;strokeColor=none;fillColor=none;align=left;verticalAlign=middle;spacingLeft=4;spacingRight=4;overflow=hidden;points=[[0,0.5],[1,0.5]];portConstraint=eastwest;rotatable=0;whiteSpace=wrap;html=1;" vertex="1" parent="HsyvcOr-vs-WV3GmDiYx-15">
          <mxGeometry y="30" width="140" height="30" as="geometry" />
        </mxCell>
        <mxCell id="HsyvcOr-vs-WV3GmDiYx-17" value="answer_message()" style="text;strokeColor=none;fillColor=none;align=left;verticalAlign=middle;spacingLeft=4;spacingRight=4;overflow=hidden;points=[[0,0.5],[1,0.5]];portConstraint=eastwest;rotatable=0;whiteSpace=wrap;html=1;" vertex="1" parent="HsyvcOr-vs-WV3GmDiYx-15">
          <mxGeometry y="60" width="140" height="30" as="geometry" />
        </mxCell>
        <mxCell id="HsyvcOr-vs-WV3GmDiYx-18" value="start_bot()" style="text;strokeColor=none;fillColor=none;align=left;verticalAlign=middle;spacingLeft=4;spacingRight=4;overflow=hidden;points=[[0,0.5],[1,0.5]];portConstraint=eastwest;rotatable=0;whiteSpace=wrap;html=1;" vertex="1" parent="HsyvcOr-vs-WV3GmDiYx-15">
          <mxGeometry y="90" width="140" height="30" as="geometry" />
        </mxCell>
        <mxCell id="HsyvcOr-vs-WV3GmDiYx-19" value="parcer.py" style="swimlane;fontStyle=0;childLayout=stackLayout;horizontal=1;startSize=30;horizontalStack=0;resizeParent=1;resizeParentMax=0;resizeLast=0;collapsible=1;marginBottom=0;whiteSpace=wrap;html=1;" vertex="1" parent="1">
          <mxGeometry x="260" y="240" width="140" height="90" as="geometry" />
        </mxCell>
        <mxCell id="HsyvcOr-vs-WV3GmDiYx-20" value="get_users()" style="text;strokeColor=none;fillColor=none;align=left;verticalAlign=middle;spacingLeft=4;spacingRight=4;overflow=hidden;points=[[0,0.5],[1,0.5]];portConstraint=eastwest;rotatable=0;whiteSpace=wrap;html=1;" vertex="1" parent="HsyvcOr-vs-WV3GmDiYx-19">
          <mxGeometry y="30" width="140" height="30" as="geometry" />
        </mxCell>
        <mxCell id="HsyvcOr-vs-WV3GmDiYx-21" value="..." style="text;strokeColor=none;fillColor=none;align=left;verticalAlign=middle;spacingLeft=4;spacingRight=4;overflow=hidden;points=[[0,0.5],[1,0.5]];portConstraint=eastwest;rotatable=0;whiteSpace=wrap;html=1;" vertex="1" parent="HsyvcOr-vs-WV3GmDiYx-19">
          <mxGeometry y="60" width="140" height="30" as="geometry" />
        </mxCell>
        <mxCell id="HsyvcOr-vs-WV3GmDiYx-25" value="&lt;font style=&quot;font-size: 23px;&quot;&gt;app/&lt;/font&gt;" style="text;html=1;align=center;verticalAlign=middle;whiteSpace=wrap;rounded=0;" vertex="1" parent="1">
          <mxGeometry x="180" y="130" width="140" height="70" as="geometry" />
        </mxCell>
        <mxCell id="HsyvcOr-vs-WV3GmDiYx-27" value="&lt;font style=&quot;font-size: 23px;&quot;&gt;db/&lt;/font&gt;" style="text;html=1;align=center;verticalAlign=middle;whiteSpace=wrap;rounded=0;" vertex="1" parent="1">
          <mxGeometry x="630" y="-50" width="60" height="30" as="geometry" />
        </mxCell>
        <mxCell id="HsyvcOr-vs-WV3GmDiYx-28" style="edgeStyle=orthogonalEdgeStyle;rounded=0;orthogonalLoop=1;jettySize=auto;html=1;entryX=0;entryY=0.5;entryDx=0;entryDy=0;" edge="1" parent="1" source="HsyvcOr-vs-WV3GmDiYx-3" target="HsyvcOr-vs-WV3GmDiYx-18">
          <mxGeometry relative="1" as="geometry" />
        </mxCell>
        <mxCell id="HsyvcOr-vs-WV3GmDiYx-29" style="edgeStyle=orthogonalEdgeStyle;rounded=0;orthogonalLoop=1;jettySize=auto;html=1;" edge="1" parent="1" source="HsyvcOr-vs-WV3GmDiYx-3" target="HsyvcOr-vs-WV3GmDiYx-13">
          <mxGeometry relative="1" as="geometry" />
        </mxCell>
        <mxCell id="HsyvcOr-vs-WV3GmDiYx-30" style="edgeStyle=orthogonalEdgeStyle;rounded=0;orthogonalLoop=1;jettySize=auto;html=1;" edge="1" parent="1" source="HsyvcOr-vs-WV3GmDiYx-20" target="HsyvcOr-vs-WV3GmDiYx-17">
          <mxGeometry relative="1" as="geometry" />
        </mxCell>
        <mxCell id="HsyvcOr-vs-WV3GmDiYx-31" style="edgeStyle=orthogonalEdgeStyle;rounded=0;orthogonalLoop=1;jettySize=auto;html=1;" edge="1" parent="1" source="HsyvcOr-vs-WV3GmDiYx-16" target="HsyvcOr-vs-WV3GmDiYx-7">
          <mxGeometry relative="1" as="geometry" />
        </mxCell>
        <mxCell id="HsyvcOr-vs-WV3GmDiYx-32" style="edgeStyle=orthogonalEdgeStyle;rounded=0;orthogonalLoop=1;jettySize=auto;html=1;" edge="1" parent="1" source="HsyvcOr-vs-WV3GmDiYx-16" target="HsyvcOr-vs-WV3GmDiYx-8">
          <mxGeometry relative="1" as="geometry" />
        </mxCell>
      </root>
    </mxGraphModel>
  </diagram>
</mxfile>
